<?xml version="1.0" standalone="no"?>
<!DOCTYPE svg PUBLIC "-//W3C//DTD SVG 20010904//EN"
 "http://www.w3.org/TR/2001/REC-SVG-20010904/DTD/svg10.dtd">
<svg version="1.0" xmlns="http://www.w3.org/2000/svg"
 width="700.000000pt" height="700.000000pt" viewBox="0 0 700.000000 700.000000"
 preserveAspectRatio="xMidYMid meet">
<metadata>
Created by potrace 1.14, written by Peter Selinger 2001-2017
</metadata>
<g transform="translate(0.000000,700.000000) scale(0.100000,-0.100000)"
fill="#000000" stroke="none">
<path d="M2285 5647 c-41 -19 -82 -63 -111 -117 -13 -25 -29 -52 -34 -60 -8
-13 -230 -397 -280 -485 -9 -16 -51 -88 -92 -160 -114 -197 -413 -715 -436
-755 -11 -19 -81 -141 -156 -270 -142 -246 -159 -289 -137 -352 7 -18 29 -62
50 -98 21 -36 48 -81 59 -100 10 -19 77 -134 147 -255 70 -121 137 -238 150
-260 35 -62 651 -1129 710 -1230 29 -49 64 -100 76 -111 84 -76 201 -72 283
11 l31 32 1058 0 c1038 0 1059 0 1085 20 14 11 37 39 51 64 22 40 727 1263
991 1719 62 107 118 205 125 218 19 36 9 84 -25 115 l-30 27 -1064 0 -1065 0
91 158 c50 86 99 169 109 184 11 15 19 29 19 32 0 3 39 71 86 153 48 81 95
164 106 183 11 19 72 124 135 233 63 110 123 213 132 230 10 18 51 88 91 157
41 69 87 150 103 180 16 30 34 62 41 70 6 8 16 24 22 35 52 96 68 122 79 134
12 12 183 14 1127 15 1055 1 1115 2 1141 19 58 38 56 126 -4 161 -31 18 -75
19 -1190 19 -1290 0 -1187 6 -1226 -70 -11 -21 -43 -78 -72 -128 -29 -49 -64
-109 -77 -132 -12 -23 -63 -111 -112 -195 -98 -169 -458 -793 -490 -848 -11
-19 -66 -115 -122 -213 l-103 -178 -79 138 c-44 76 -114 197 -156 268 -41 72
-86 150 -100 175 -13 25 -37 65 -52 90 -22 36 -184 315 -278 480 -11 19 -77
134 -147 255 -70 121 -150 260 -177 308 -62 110 -102 140 -192 144 -37 2 -73
-2 -91 -10z m184 -761 c55 -96 109 -189 119 -207 11 -19 70 -122 132 -229 62
-107 121 -208 130 -225 10 -16 81 -140 159 -275 l141 -245 -396 -3 c-217 -1
-570 -1 -784 0 l-388 3 44 75 c24 41 49 84 54 95 6 11 19 35 30 53 29 48 265
456 365 632 80 140 290 500 291 500 1 0 47 -78 103 -174z m3118 -1493 c-3 -5
-38 -66 -80 -138 -41 -71 -84 -146 -94 -165 -11 -19 -46 -80 -78 -135 -32 -55
-99 -172 -150 -260 -51 -88 -126 -218 -167 -290 -42 -71 -101 -175 -133 -230
-32 -55 -67 -112 -77 -127 -11 -16 -16 -28 -12 -28 4 0 0 -8 -8 -17 -12 -15
-89 -146 -173 -294 -11 -19 -25 -43 -31 -54 -11 -18 -48 -18 -1024 -19 -887
-1 -1013 1 -1025 14 -7 8 -23 33 -35 55 -12 22 -29 54 -39 70 -44 72 -161 277
-161 281 0 3 -8 17 -19 32 -17 25 -175 296 -234 402 -14 25 -114 198 -222 385
-109 187 -209 359 -222 383 l-24 42 983 0 c979 0 982 0 1025 21 24 12 54 34
65 50 l22 29 958 0 c528 0 957 -3 955 -7z"/>
</g>
</svg>
